<svg xmlns="http://www.w3.org/2000/svg" width="512" height="512" viewBox="0 0 512 512">
    <rect fill="#c2175b" width="512" height="512" rx="180" ry="180"/>
    <path fill="#fff" d="M364,100H148a48.012,48.012,0,0,0-48,48V364a48.012,48.012,0,0,0,48,48H364a48.012,48.012,0,0,0,48-48V148A48.012,48.012,0,0,0,364,100Zm18,264a18.053,18.053,0,0,1-18,18H148a18.053,18.053,0,0,1-18-18V148a18.053,18.053,0,0,1,18-18H364a18.053,18.053,0,0,1,18,18V364Zm-92-92H192a16,16,0,0,1-16-16h0a16,16,0,0,1,16-16h98a16,16,0,0,1,16,16h0A16,16,0,0,1,290,272Zm-30,60H192a16,16,0,0,1-16-16h0a16,16,0,0,1,16-16h68a16,16,0,0,1,16,16h0A16,16,0,0,1,260,332Zm60-120H192a16,16,0,0,1-16-16h0a16,16,0,0,1,16-16H320a16,16,0,0,1,16,16h0A16,16,0,0,1,320,212Z"/>
</svg>