<svg xmlns="http://www.w3.org/2000/svg" width="512" height="512" viewBox="0 0 512 512">
    <rect fill="#a0a5ab" width="512" height="512" rx="180" ry="180"/>
    <path fill="#fff" d="M412,270.183c0-73.532-62.575-133.985-141.4-141.107V115a15,15,0,0,0-15-15h-0.2a14,14,0,0,0-14,14v15.076C162.575,136.2,100,196.651,100,270.183c0,22.047,62.571,40.188,141.4,42.32v56.951c0,23.49,19.962,42.546,45.8,42.546S333,392.944,333,369.454V369.3a14.021,14.021,0,0,0-14.021-14.021h0a14.18,14.18,0,0,0-14.18,14.18h0c0,7.825-8.992,16.181-17.6,16.181s-16.6-8.356-16.6-16.181V312.5C349.425,310.371,412,292.23,412,270.183Zm-141.4,13.9V256.279c39.4,1.144,70.715,6.445,90.18,11.984a2,2,0,0,1,0,3.845C341.313,277.639,310,282.946,270.6,284.086ZM256,168.726c45.389,0,85.827,16.273,107.25,58.217a4,4,0,0,1-4.757,5.647c-26.758-8.341-58.411-14.953-102.493-14.953-44.066,0-75.712,5.8-102.464,13.968a4,4,0,0,1-4.724-5.681C170.244,184.949,212.906,168.726,256,168.726ZM151.219,268.259c19.46-5.536,50.778-10.841,90.182-11.985v27.808c-39.4-1.136-70.716-6.444-90.181-11.978A2,2,0,0,1,151.219,268.259Z"/>
</svg>
